<mxfile host="app.diagrams.net" modified="2024-06-21T12:13:52.268Z" agent="Mozilla/5.0 (Macintosh; Intel Mac OS X 10.15; rv:128.0) Gecko/20100101 Firefox/128.0" etag="ugsgXFoa1r6VMQRfNzWi" version="24.5.5" type="device">
  <diagram name="Page-1" id="UyZtxJjP1uzCAfTyy7LW">
    <mxGraphModel dx="1316" dy="587" grid="1" gridSize="10" guides="1" tooltips="1" connect="1" arrows="1" fold="1" page="1" pageScale="1" pageWidth="850" pageHeight="1100" math="0" shadow="0">
      <root>
        <mxCell id="0" />
        <mxCell id="1" parent="0" />
        <mxCell id="AfnDxBvoSPda0QVBZBlg-25" value="" style="text;html=1;align=left;verticalAlign=top;whiteSpace=wrap;rounded=1;fontFamily=Monospace;labelBackgroundColor=none;spacing=20;spacingLeft=5;spacingTop=0;fillColor=#E6E6E6;fontColor=#333333;strokeColor=none;arcSize=8;fontSize=16;fontStyle=0;shadow=0;shadowOffsetX=2;shadowOffsetY=2;shadowBlur=1;" vertex="1" parent="1">
          <mxGeometry x="37" y="78" width="297" height="87" as="geometry" />
        </mxCell>
        <mxCell id="AfnDxBvoSPda0QVBZBlg-26" style="rounded=1;orthogonalLoop=1;jettySize=auto;html=1;exitX=0.5;exitY=0;exitDx=0;exitDy=0;fontFamily=Helvetica;fontSize=12;fontColor=default;labelBackgroundColor=none;endArrow=none;endFill=0;startArrow=classicThin;startFill=1;shadow=0;shadowOffsetX=2;shadowOffsetY=2;shadowBlur=1;" edge="1" parent="1" source="AfnDxBvoSPda0QVBZBlg-33" target="AfnDxBvoSPda0QVBZBlg-27">
          <mxGeometry relative="1" as="geometry" />
        </mxCell>
        <mxCell id="AfnDxBvoSPda0QVBZBlg-27" value="&lt;div style=&quot;font-size: 16px;&quot;&gt;Method&lt;/div&gt;" style="text;html=1;align=center;verticalAlign=middle;whiteSpace=wrap;rounded=0;fontFamily=Helvetica;fontSize=16;fontColor=default;labelBackgroundColor=none;shadow=0;shadowOffsetX=2;shadowOffsetY=2;shadowBlur=1;" vertex="1" parent="1">
          <mxGeometry x="30" y="20" width="60" height="30" as="geometry" />
        </mxCell>
        <mxCell id="AfnDxBvoSPda0QVBZBlg-28" value="Path" style="text;html=1;align=center;verticalAlign=middle;whiteSpace=wrap;rounded=0;fontFamily=Helvetica;fontSize=16;fontColor=default;labelBackgroundColor=none;shadow=0;shadowOffsetX=2;shadowOffsetY=2;shadowBlur=1;" vertex="1" parent="1">
          <mxGeometry x="86" y="20" width="60" height="30" as="geometry" />
        </mxCell>
        <mxCell id="AfnDxBvoSPda0QVBZBlg-29" value="Protocol version" style="text;html=1;align=center;verticalAlign=middle;whiteSpace=wrap;rounded=0;fontFamily=Helvetica;fontSize=16;fontColor=default;labelBackgroundColor=none;shadow=0;shadowOffsetX=2;shadowOffsetY=2;shadowBlur=1;" vertex="1" parent="1">
          <mxGeometry x="143" y="20" width="122" height="30" as="geometry" />
        </mxCell>
        <mxCell id="AfnDxBvoSPda0QVBZBlg-30" value="&lt;div style=&quot;font-size: 16px;&quot;&gt;Headers&lt;/div&gt;" style="text;html=1;align=center;verticalAlign=middle;whiteSpace=wrap;rounded=0;fontFamily=Helvetica;fontSize=16;fontColor=default;labelBackgroundColor=none;shadow=0;shadowOffsetX=2;shadowOffsetY=2;shadowBlur=1;" vertex="1" parent="1">
          <mxGeometry x="157" y="181" width="60" height="30" as="geometry" />
        </mxCell>
        <mxCell id="AfnDxBvoSPda0QVBZBlg-31" style="rounded=1;orthogonalLoop=1;jettySize=auto;html=1;exitX=0.5;exitY=0;exitDx=0;exitDy=0;fontFamily=Helvetica;fontSize=12;fontColor=default;labelBackgroundColor=none;endArrow=none;endFill=0;startArrow=classicThin;startFill=1;shadow=0;shadowOffsetX=2;shadowOffsetY=2;shadowBlur=1;" edge="1" parent="1" source="AfnDxBvoSPda0QVBZBlg-34" target="AfnDxBvoSPda0QVBZBlg-28">
          <mxGeometry relative="1" as="geometry" />
        </mxCell>
        <mxCell id="AfnDxBvoSPda0QVBZBlg-32" style="rounded=1;orthogonalLoop=1;jettySize=auto;html=1;exitX=0.5;exitY=0;exitDx=0;exitDy=0;fontFamily=Helvetica;fontSize=12;fontColor=default;labelBackgroundColor=none;endArrow=none;endFill=0;startArrow=classicThin;startFill=1;shadow=0;shadowOffsetX=2;shadowOffsetY=2;shadowBlur=1;" edge="1" parent="1" source="AfnDxBvoSPda0QVBZBlg-35" target="AfnDxBvoSPda0QVBZBlg-29">
          <mxGeometry relative="1" as="geometry" />
        </mxCell>
        <mxCell id="AfnDxBvoSPda0QVBZBlg-33" value="&lt;p style=&quot;line-height: 100%;&quot;&gt;&lt;font style=&quot;font-size: 16px;&quot; color=&quot;#509ad4&quot;&gt;GET&lt;/font&gt;&lt;/p&gt;" style="text;html=1;align=left;verticalAlign=middle;rounded=1;fontFamily=Monospace;labelBackgroundColor=none;spacing=4;spacingLeft=0;spacingTop=0;fillColor=#F2FFFC;fontColor=#333333;strokeColor=none;arcSize=8;fontSize=16;fontStyle=0;shadow=0;shadowOffsetX=2;shadowOffsetY=2;shadowBlur=1;" vertex="1" parent="1">
          <mxGeometry x="45" y="85" width="36" height="21" as="geometry" />
        </mxCell>
        <mxCell id="AfnDxBvoSPda0QVBZBlg-34" value="&lt;p style=&quot;line-height: 100%;&quot;&gt;/&lt;/p&gt;" style="text;html=1;align=left;verticalAlign=middle;rounded=1;fontFamily=Monospace;labelBackgroundColor=none;spacing=4;spacingLeft=0;spacingTop=0;fillColor=#F5F5FF;fontColor=#333333;strokeColor=none;arcSize=8;fontSize=16;fontStyle=0;shadow=0;shadowOffsetX=2;shadowOffsetY=2;shadowBlur=1;" vertex="1" parent="1">
          <mxGeometry x="100" y="84.5" width="17" height="21" as="geometry" />
        </mxCell>
        <mxCell id="AfnDxBvoSPda0QVBZBlg-35" value="&lt;p style=&quot;line-height: 100%;&quot;&gt;&lt;font color=&quot;#5d837e&quot; style=&quot;font-size: 16px;&quot;&gt;HTTP&lt;/font&gt;/&lt;font color=&quot;#cd5b92&quot; style=&quot;font-size: 16px;&quot;&gt;1.1&lt;/font&gt;&lt;/p&gt;" style="text;html=1;align=left;verticalAlign=middle;rounded=1;fontFamily=Monospace;labelBackgroundColor=none;spacing=4;spacingLeft=0;spacingTop=0;fillColor=#F5EBEF;fontColor=#333333;strokeColor=none;arcSize=8;fontSize=16;fontStyle=0;shadow=0;shadowOffsetX=2;shadowOffsetY=2;shadowBlur=1;" vertex="1" parent="1">
          <mxGeometry x="131" y="84" width="100" height="22" as="geometry" />
        </mxCell>
        <mxCell id="AfnDxBvoSPda0QVBZBlg-36" value="&lt;div style=&quot;font-size: 16px;&quot;&gt;&lt;font color=&quot;#5d837e&quot; style=&quot;font-size: 16px;&quot;&gt;Host&lt;/font&gt;: developer.mozilla.org&lt;/div&gt;&lt;div style=&quot;font-size: 16px;&quot;&gt;&lt;font color=&quot;#5d837e&quot; style=&quot;font-size: 16px;&quot;&gt;Accept-Language&lt;/font&gt;: fr&lt;/div&gt;" style="text;html=1;align=left;verticalAlign=middle;whiteSpace=wrap;rounded=1;fontFamily=Monospace;labelBackgroundColor=none;spacing=4;spacingLeft=0;spacingTop=0;fillColor=#cfe3f5;fontColor=#333333;strokeColor=none;arcSize=8;fontSize=16;fontStyle=0;shadow=0;shadowOffsetX=2;shadowOffsetY=2;shadowBlur=1;" vertex="1" parent="1">
          <mxGeometry x="45" y="110" width="284" height="48" as="geometry" />
        </mxCell>
        <mxCell id="AfnDxBvoSPda0QVBZBlg-37" style="rounded=1;orthogonalLoop=1;jettySize=auto;html=1;exitX=0.5;exitY=1;exitDx=0;exitDy=0;fontFamily=Helvetica;fontSize=12;fontColor=default;labelBackgroundColor=none;endArrow=none;endFill=0;startArrow=classicThin;startFill=1;shadow=0;shadowOffsetX=2;shadowOffsetY=2;shadowBlur=1;entryX=0.5;entryY=0;entryDx=0;entryDy=0;" edge="1" parent="1" source="AfnDxBvoSPda0QVBZBlg-36" target="AfnDxBvoSPda0QVBZBlg-30">
          <mxGeometry relative="1" as="geometry">
            <mxPoint x="78" y="296" as="sourcePoint" />
            <mxPoint x="17" y="62" as="targetPoint" />
          </mxGeometry>
        </mxCell>
      </root>
    </mxGraphModel>
  </diagram>
</mxfile>
